<svg xmlns="http://www.w3.org/2000/svg" width="578" height="573" viewBox="0 0 578 573.4"><path d="M485.5 215c0.5 82.2-6.9 156.5-69.4 175.7 12.8 27.1 3.4 70.3-9.2 92.5 -23.6 22.7-32.1 82.3-78.6 67.1 -6.7-21.5 1.4-57.8-2.3-76.3 -24.5-9.4-54.7-13.1-85.5-16.2 -17.2 16.1-10.8 60.7-34.7 64.7 -44.2 7.5-36.1-89.5-25.4-124.9C114.5 371.1 41.8 329.2 69.4 224.3c35.9 70.2 142.6 20.8 159.5-39.3 -7.8 117.5 173.8 135.1 228.9 64.7 23.9-70-24.4-119.9-74-138.7 44.7-31.6 95.3-57.3 164.2-64.7 25.9 14.1 7.4 50.4-4.6 80.9C528.9 163.8 510.3 192.9 485.5 215z"/><path d="M326 94.8c-25.9 7-64.2 16-76.3 43.9 -9.3-9.5 1-39.5-18.5-43.9C256.7 79.8 300.6 80.8 326 94.8z"/><path d="M185 136.4c2.3 10-8.3 27.1-11.6 39.3C170.8 165.3 180.4 147.3 185 136.4z"/><path d="M314.4 145.7c5 8.4-6.8 37.1-13.9 48.6C302 174.8 310.7 162.7 314.4 145.7z"/><path d="M101.7 159.5c5.2-20.8 27.9-69.7 46.2-92.5 23.8-29.6 49.3-1.2 71.7 20.8C174.9 97.2 129.3 125.4 101.7 159.5z"/></svg>